# xmcd
#
# Track frame offsets: 
#        183
#        7115
#        32398
#        59518
#        100023
#        117733
#        141670
#        160733
#        175588
#        199610
#        206365
#        234598
#        270920
#        320405
#
# Disc length: 4379 seconds
#
# Revision: 1
# Processed by: cddbd v1.5.2PL0 Copyright (c) Steve Scherf et al.
# Submitted via: ExactAudioCopyFreeDBPlugin 1.0
#
DISCID=bc11190e
DTITLE=Mike Bloomfield and Al Kooper - The Live Adventures Of Mike Bloom
DTITLE=field And Al kooper
DYEAR=1968
DGENRE=Blues
TTITLE0=Opening Speech
TTITLE1=The 59th Street Bridge Song
TTITLE2=I Wonder Who
TTITLE3=Her Holy Modal Highness
TTITLE4=The Weight
TTITLE5=Mary Anne
TTITLE6=Together 'Till The End Of Time
TTITLE7=That's Alright
TTITLE8=Green Onions
TTITLE9=Opening Speech
TTITLE10=Sonny Boy Williamson
TTITLE11=Dear Mr. Fantasy
TTITLE12=Don't Throw Your Love On Me So Strong
TTITLE13=Finale - Refugee
EXTD=
EXTT0=
EXTT1=
EXTT2=
EXTT3=
EXTT4=
EXTT5=
EXTT6=
EXTT7=
EXTT8=
EXTT9=
EXTT10=
EXTT11=
EXTT12=
EXTT13=
PLAYORDER=
